<svg width="66" height="29" viewBox="0 0 66 29" fill="none" xmlns="http://www.w3.org/2000/svg">
<g clip-path="url(#clip0_2008_202)">
<path d="M0.00268555 29H65.9979V0H0.00268555V29Z" fill="black"/>
<path d="M0.766357 28.4798H65.294V0.527832H0.766357V28.4798Z" fill="white"/>
<path d="M15 16.0112L16.2483 17.0017L17.5382 16.0178H18.5717V16.3218L16.9552 17.5589L18.5717 18.8816V16.0178H21.4895C22.0413 16.0178 22.8504 16.1943 22.8504 16.9862C22.8504 18.097 21.7857 18.1102 21.2027 18.1102H19.6875V19.1857H17.5278L16.2085 18.1317L14.857 19.1779H10.5627V16.0106H15V16.0112V16.0112ZM28.2189 16.0112H31.899V16.6941H29.3451V17.2872H31.828V17.8881H29.3451V18.5153H31.899V19.1785H28.2189V16.0112V16.0112ZM24.5094 19.1863H23.3832V16.0184H26.3105C26.864 16.0184 27.6619 16.1884 27.6619 16.8665C27.6619 17.2495 27.4982 17.5314 26.884 17.7439C27.4159 17.7864 27.6212 18.027 27.6212 18.5357L27.6619 19.1863H26.566L26.5357 18.6057C26.5262 18.3376 26.372 18.0689 25.9839 18.0689H24.5094V19.1863V19.1863ZM38.9663 17.2459C40.3515 17.2938 40.4659 17.772 40.4659 18.2807C40.4659 18.8744 39.7599 19.1929 39.0226 19.1929H36.6585V18.5147H38.5011C38.8138 18.5147 39.2791 18.5147 39.2791 18.2095C39.2791 18.0647 39.1968 17.9731 38.8641 17.948C38.6056 17.9306 38.3465 17.9182 38.087 17.9109C36.8369 17.8881 36.5467 17.459 36.5467 16.9359C36.5467 16.3422 37.1505 16.0172 37.8878 16.0172H40.2519V16.6965H38.5219C38.1286 16.7001 37.7032 16.6642 37.7032 16.9724C37.7032 17.1663 37.9138 17.2052 38.1788 17.2238C38.2707 17.2244 38.8849 17.2459 38.9663 17.2459V17.2459ZM34.7491 17.2459C36.1335 17.2938 36.2487 17.772 36.2487 18.2807C36.2487 18.8744 35.5418 19.1929 34.8055 19.1929H32.4404V18.5147H34.2831C34.5949 18.5147 35.0619 18.5147 35.0619 18.2095C35.0619 18.0647 34.9796 17.9731 34.6469 17.948C34.4979 17.9336 33.9504 17.912 33.8698 17.9109C32.6198 17.8881 32.3296 17.459 32.3296 16.9359C32.3296 16.3422 32.9334 16.0172 33.6697 16.0172H36.0347V16.6965H34.3047C33.9106 16.7001 33.4861 16.6642 33.4861 16.9724C33.4861 17.1663 33.6957 17.2052 33.9625 17.2238C34.0535 17.2244 34.6677 17.2459 34.7491 17.2459V17.2459ZM19.9128 13.7411H18.7866V10.5732H21.7138C22.2665 10.5732 23.0661 10.7431 23.0661 11.4213C23.0661 11.8037 22.9024 12.0868 22.2882 12.2987C22.8201 12.3412 23.0254 12.5818 23.0254 13.0905L23.0661 13.7411H21.9711L21.9399 13.1611C21.9295 12.8924 21.7771 12.6243 21.3872 12.6243H19.9137V13.7411H19.9128V13.7411ZM23.6396 13.7411H24.765V10.5696H23.6396V13.7411ZM14.462 10.5732H18.1412V11.2555H15.5899V11.8498H18.071V12.4513H15.5899V13.0767H18.1412V13.7411H14.462V10.5732V10.5732ZM6.24507 13.7411H8.5122V11.3901L10.0161 13.7411H11.0401L12.5795 11.429V13.7411H13.7048V10.5732H11.909L10.5272 12.6985L9.15066 10.5732H7.38513V13.6244L5.41948 10.5732H3.93117L1.9248 13.7411H3.11251L3.55173 13.0342H5.79806L6.24507 13.7411V13.7411ZM31.2432 13.036H28.9977L28.5577 13.7429H27.0728C25.8245 13.7429 25.2709 13.0199 25.2977 12.1431C25.3359 10.8419 26.4491 10.5714 26.9611 10.5714H28.4303V11.2609H27.7347C26.987 11.2609 26.404 11.3147 26.404 12.0569V12.2867C26.4092 12.8451 26.8328 12.9774 27.104 13.0163C27.1707 13.027 27.2937 13.0312 27.3388 13.0288L27.8256 13.027L29.3763 10.5732H30.8664L32.7852 13.5465V10.5714H34.4477L36.3466 12.7649V10.5714H37.4719V13.7429H35.9368L33.9106 11.423V13.7429H31.6893L31.2432 13.036V13.036Z" fill="#00ACEC"/>
<path d="M40.2613 15.524V1.42322H2.02173V12.3268L3.45547 10.0932H5.89152L6.69025 11.4219V10.0932H9.65735L10.5583 11.4087L11.4385 10.0932H21.8991C22.308 10.0932 22.8607 10.1925 23.1076 10.5031V10.0932H25.2976V10.5738C25.5844 10.3056 26.0141 10.0932 26.8527 10.0932H31.3159L32.1345 11.3794V10.0932H34.7759L35.7167 11.2106V10.0932H38.132V14.2217H35.533L34.4476 13.0061V14.2217H31.1521L30.6202 13.4155H29.5755L29.0843 14.2217H27.0164C26.5659 14.1941 25.5229 14.0661 25.2976 13.5861V14.2217H21.3265V13.3173C21.3265 13.1892 21.1628 13.0342 20.9375 13.0342H20.5078V14.2217H12.0527V13.2886L11.4186 14.2217H9.69893L9.04401 13.2742V14.2217H5.66628L5.2158 13.4867H4.13032L3.65991 14.2217H2.02173V27.5582H40.2613V19.3844C40.0569 19.5406 39.7294 19.6675 39.2382 19.6675H36.0433V19.3562C35.7981 19.5406 35.4507 19.6675 34.8972 19.6675H25.8911V18.805C25.8703 18.6913 25.9526 18.4513 25.5021 18.4513H25.1339V19.6675H22.7386V18.2664C22.4925 18.5507 21.9615 18.5638 21.6132 18.5782H20.3432V19.6675H17.15L16.2283 18.8894L15.2459 19.6675H9.82195V15.524H15.3282L16.2898 16.2733L17.273 15.524H21.6332C21.9398 15.5372 22.5229 15.6365 22.7386 15.8628V15.524H26.4646C26.792 15.524 27.4262 15.6222 27.693 15.919V15.524H32.3598V15.8909C32.6049 15.6653 32.9948 15.524 33.5873 15.524H36.5761V15.8777C36.8013 15.6509 37.3956 15.524 37.7439 15.524H40.2613V15.524ZM50.7852 15.1637C50.7852 15.6934 47.8666 15.1092 47.8666 16.3972C47.8666 16.9856 48.5554 17.2519 49.3298 17.2519C49.9406 17.2519 50.4093 17.1645 50.8719 16.8671L51.0382 17.1699H52.51C52.426 17.0598 52.413 16.9161 52.413 16.7545V15.4295C52.413 14.7531 52.2952 14.2558 50.3547 14.2558C48.7347 14.2558 48.1161 14.6071 48.1161 15.2068H49.6816C49.7205 14.9638 50.0263 14.9321 50.2533 14.9321C50.4266 14.9321 50.7852 14.959 50.7852 15.1637V15.1637ZM59.2542 16.7881V17.1669H60.7166V13.273H59.0905V14.6197C58.7449 14.3384 58.3853 14.2522 57.869 14.2522C56.8901 14.2522 56.1312 14.8627 56.1312 15.8041C56.1312 16.6043 56.7575 17.2477 57.9938 17.2477C58.5196 17.2477 58.8713 17.1346 59.2542 16.7881V16.7881ZM55.7093 15.2272V14.2683C55.6391 14.263 55.5681 14.2522 55.4971 14.2522C54.8647 14.2522 54.4644 14.4629 54.2375 14.907H54.2219V14.3336H52.7431V17.1663H54.37V16.0507C54.37 15.4396 54.707 15.223 55.3723 15.223L55.7093 15.2272V15.2272ZM45.9937 14.7543C45.9383 14.3497 45.5701 14.1169 44.9914 14.1169C44.3416 14.1169 43.9501 14.5012 43.9501 15.2523C43.9501 15.7987 44.1225 16.3116 45.0607 16.3116C45.6567 16.3116 45.9382 16.0262 46.0093 15.6527H47.7852C47.6224 16.6582 46.5802 17.2627 45.0945 17.2627C43.2319 17.2627 42.104 16.475 42.104 15.2086C42.104 13.9487 43.3402 13.1647 44.9143 13.1647C46.6356 13.1647 47.599 13.7542 47.748 14.7537H45.9937V14.7543V14.7543Z" fill="#00ACEC"/>
<path d="M19.6884 17.4608H21.091C21.551 17.4608 21.7147 17.2765 21.7147 17.0646C21.7147 16.909 21.5666 16.7013 21.0953 16.7013H19.6884V17.4608ZM14.2428 16.6941H11.6898V17.2873H14.1709V17.8882H11.6898V18.5154H14.2844L15.5232 17.5596L14.4273 16.6971L14.2428 16.6941ZM24.5094 17.4189H25.912C26.372 17.4189 26.5357 17.2771 26.5357 17.0646C26.5357 16.909 26.3876 16.7013 25.9163 16.7013H24.5094V17.4189V17.4189ZM19.9128 11.9737H21.3153C21.7762 11.9737 21.9391 11.8325 21.9391 11.62C21.9391 11.465 21.7909 11.2555 21.3197 11.2555H19.9128V11.9737V11.9737ZM5.36317 12.3526H3.99268L4.66493 11.2448L5.36317 12.3526ZM30.1083 11.2465L29.4378 12.3538H30.8135L30.1083 11.2465Z" fill="white"/>
<path d="M63.7451 18.0348L49.97 27.551H51.9261L63.7451 19.3862V18.0348Z" fill="#3B4095"/>
<path d="M63.7451 20.6975L53.8259 27.551H55.7803L63.7451 22.0495V20.6975Z" fill="#00ACEC"/>
<path d="M63.7452 23.3608L57.6785 27.551H59.6363L63.7452 24.7117V23.3608Z" fill="#6CB35E"/>
<path d="M41.6604 26.0523C41.661 25.8547 41.7179 25.6591 41.8279 25.4767C41.938 25.2943 42.099 25.1287 42.3017 24.9893C42.5045 24.8499 42.745 24.7394 43.0095 24.6643C43.2741 24.5891 43.5575 24.5507 43.8435 24.5513C44.1289 24.5511 44.4115 24.5898 44.6752 24.6652C44.9389 24.7406 45.1785 24.8512 45.3803 24.9906C45.5821 25.13 45.7422 25.2955 45.8513 25.4777C45.9604 25.6599 46.0164 25.8552 46.0162 26.0523C46.0174 26.2501 45.9622 26.446 45.8536 26.629C45.745 26.8119 45.5852 26.9782 45.3833 27.1184C45.1814 27.2586 44.9415 27.3699 44.6773 27.4458C44.413 27.5218 44.1297 27.561 43.8435 27.5612C43.5566 27.5614 43.2725 27.5225 43.0075 27.4468C42.7424 27.371 42.5015 27.2599 42.2987 27.1197C42.0959 26.9796 41.9352 26.8131 41.8256 26.63C41.7161 26.4468 41.6599 26.2505 41.6604 26.0523V26.0523Z" fill="#00ACEC"/>
<path d="M45.7538 26.0524C45.7539 25.8791 45.7046 25.7075 45.6086 25.5474C45.5127 25.3872 45.372 25.2418 45.1945 25.1193C45.0171 24.9967 44.8065 24.8996 44.5747 24.8334C44.3429 24.7671 44.0945 24.7331 43.8436 24.7333C43.5924 24.7328 43.3435 24.7666 43.1112 24.8326C42.8789 24.8987 42.6678 24.9958 42.4899 25.1183C42.3119 25.2409 42.1707 25.3864 42.0744 25.5467C41.978 25.707 41.9283 25.8788 41.9282 26.0524C41.9282 26.4029 42.1298 26.739 42.4885 26.9868C42.8472 27.2347 43.3337 27.3739 43.841 27.3739C44.3483 27.3739 44.8349 27.2347 45.1936 26.9868C45.5523 26.739 45.7538 26.4029 45.7538 26.0524V26.0524Z" fill="white"/>
<path d="M44.9263 26.8956H44.5737L43.8764 26.1194H43.3306V26.8956H43.0334V25.2126H44.0938C44.2991 25.2126 44.5044 25.221 44.6872 25.2958C44.87 25.3671 44.9601 25.5167 44.9601 25.6579C44.9601 25.9895 44.6249 26.1116 44.1908 26.1194L44.9263 26.8956V26.8956Z" fill="#00ACEC"/>
<path d="M43.7872 25.9578C44.1294 25.9578 44.6596 25.9973 44.6596 25.6537C44.6596 25.394 44.3287 25.3629 44.0263 25.3629H43.3315V25.9578H43.7872ZM50.7852 15.9155C50.7896 16.4457 50.5539 16.6133 49.983 16.6133C49.6616 16.6133 49.4659 16.5158 49.4659 16.3757C49.4667 16.007 50.2542 16.0938 50.7852 15.9155V15.9155ZM59.1451 15.7772C59.1451 16.1064 58.9658 16.4362 58.4018 16.4362C57.8708 16.4362 57.7616 16.0908 57.7616 15.7928C57.7616 15.4803 57.9097 15.1224 58.4503 15.1224C58.9892 15.1224 59.1451 15.463 59.1451 15.7772Z" fill="white"/>
</g>
<defs>
<clipPath id="clip0_2008_202">
<rect width="66" height="29" fill="white"/>
</clipPath>
</defs>
</svg>
