<svg width="112" height="26" viewBox="0 0 112 26" fill="none" xmlns="http://www.w3.org/2000/svg">
<path d="M8.23995 5.34523H10.0013V15.743C10.0013 16.671 9.83086 17.4593 9.48995 18.108C9.14904 18.7567 8.66845 19.2491 8.04818 19.5853C7.42792 19.9215 6.69639 20.0895 5.85358 20.0895C5.05813 20.0895 4.35027 19.9451 3.73 19.6563C3.10974 19.3628 2.62205 18.9461 2.26693 18.4063C1.91182 17.8665 1.73426 17.225 1.73426 16.4816H3.46722C3.46722 16.8935 3.56902 17.2534 3.77262 17.5611C3.98095 17.8642 4.26504 18.1009 4.62489 18.2714C4.98474 18.4418 5.3943 18.527 5.85358 18.527C6.36021 18.527 6.79108 18.4205 7.1462 18.2074C7.50131 17.9944 7.7712 17.6819 7.95586 17.2699C8.14525 16.8533 8.23995 16.3443 8.23995 15.743V5.34523ZM13.5311 19.8907V5.34523H18.4459C19.5823 5.34523 20.515 5.53936 21.2442 5.92762C21.9734 6.31114 22.5131 6.83908 22.8635 7.51142C23.2139 8.18377 23.3891 8.94845 23.3891 9.80546C23.3891 10.6625 23.2139 11.4224 22.8635 12.0853C22.5131 12.7482 21.9757 13.269 21.2513 13.6478C20.5269 14.0218 19.6012 14.2089 18.4743 14.2089H14.497V12.618H18.4175C19.194 12.618 19.819 12.5043 20.2925 12.277C20.7707 12.0498 21.1164 11.7278 21.3294 11.3111C21.5472 10.8897 21.6561 10.3878 21.6561 9.80546C21.6561 9.22307 21.5472 8.71408 21.3294 8.27847C21.1116 7.84286 20.7636 7.50669 20.2854 7.26995C19.8072 7.02847 19.1751 6.90773 18.3891 6.90773H15.2925V19.8907H13.5311ZM20.3777 13.3566L23.9573 19.8907H21.9118L18.3891 13.3566H20.3777ZM34.2787 8.98159C34.1934 8.2619 33.8478 7.70319 33.2417 7.30546C32.6357 6.90773 31.8923 6.70887 31.0116 6.70887C30.3677 6.70887 29.8042 6.81303 29.3213 7.02137C28.843 7.2297 28.469 7.51616 28.1991 7.88074C27.934 8.24533 27.8014 8.65962 27.8014 9.12364C27.8014 9.5119 27.8937 9.8457 28.0784 10.1251C28.2678 10.3997 28.5092 10.6293 28.8028 10.814C29.0964 10.9939 29.4041 11.1431 29.7261 11.2614C30.0481 11.3751 30.344 11.4674 30.6139 11.5384L32.0912 11.9361C32.4699 12.0356 32.8913 12.1729 33.3554 12.3481C33.8241 12.5233 34.2716 12.7624 34.6977 13.0654C35.1286 13.3637 35.4837 13.7472 35.763 14.216C36.0424 14.6847 36.1821 15.26 36.1821 15.9418C36.1821 16.7278 35.9761 17.438 35.5642 18.0725C35.157 18.707 34.5604 19.2112 33.7744 19.5853C32.9931 19.9593 32.0438 20.1464 30.9264 20.1464C29.8847 20.1464 28.9827 19.9783 28.2204 19.6421C27.4628 19.3059 26.8662 18.8372 26.4306 18.2359C25.9998 17.6345 25.7559 16.9361 25.6991 16.1407H27.5173C27.5646 16.6899 27.7493 17.1445 28.0713 17.5043C28.398 17.8594 28.8099 18.1246 29.3071 18.2998C29.809 18.4702 30.3487 18.5555 30.9264 18.5555C31.5987 18.5555 32.2024 18.4466 32.7375 18.2288C33.2725 18.0062 33.6963 17.6985 34.0088 17.3055C34.3213 16.9077 34.4775 16.4437 34.4775 15.9134C34.4775 15.4305 34.3426 15.0375 34.0727 14.7344C33.8028 14.4314 33.4477 14.1852 33.0073 13.9958C32.567 13.8064 32.0912 13.6407 31.5798 13.4986L29.79 12.9873C28.6537 12.6606 27.754 12.1942 27.0912 11.5881C26.4283 10.9821 26.0968 10.189 26.0968 9.20887C26.0968 8.39447 26.317 7.68425 26.7573 7.07819C27.2024 6.46739 27.799 5.99391 28.5471 5.65773C29.3 5.31682 30.1404 5.14637 31.0684 5.14637C32.0059 5.14637 32.8393 5.31445 33.5684 5.65063C34.2976 5.98207 34.8752 6.43661 35.3014 7.01426C35.7323 7.59192 35.9595 8.24769 35.9832 8.98159H34.2787ZM39.078 19.8907V5.34523H43.9928C45.1339 5.34523 46.0667 5.5512 46.7911 5.96313C47.5202 6.37033 48.06 6.92194 48.4104 7.61796C48.7608 8.31398 48.936 9.0905 48.936 9.9475C48.936 10.8045 48.7608 11.5834 48.4104 12.2842C48.0648 12.9849 47.5297 13.5436 46.8053 13.9603C46.0809 14.3722 45.1528 14.5782 44.0212 14.5782H40.4985V13.0157H43.9644C44.7456 13.0157 45.373 12.8807 45.8465 12.6109C46.32 12.341 46.6632 11.9764 46.8763 11.5171C47.0941 11.0531 47.203 10.5299 47.203 9.9475C47.203 9.36512 47.0941 8.84428 46.8763 8.385C46.6632 7.92572 46.3176 7.56588 45.8394 7.30546C45.3612 7.04031 44.7267 6.90773 43.936 6.90773H40.8394V19.8907H39.078ZM51.5461 19.8907V8.98159H53.1654V10.6293H53.279C53.4779 10.0895 53.8377 9.65158 54.3586 9.3154C54.8794 8.97923 55.4665 8.81114 56.1199 8.81114C56.243 8.81114 56.3969 8.81351 56.5816 8.81824C56.7662 8.82298 56.9059 8.83008 57.0006 8.83955V10.5441C56.9438 10.5299 56.8136 10.5086 56.61 10.4802C56.4111 10.447 56.2004 10.4305 55.9779 10.4305C55.4476 10.4305 54.9741 10.5417 54.5574 10.7643C54.1455 10.9821 53.8188 11.2851 53.5773 11.6734C53.3406 12.0569 53.2222 12.4949 53.2222 12.9873V19.8907H51.5461ZM63.0872 20.118C62.1024 20.118 61.2383 19.8836 60.4949 19.4148C59.7563 18.9461 59.1786 18.2903 58.762 17.4475C58.35 16.6047 58.1441 15.6199 58.1441 14.493C58.1441 13.3566 58.35 12.3646 58.762 11.5171C59.1786 10.6696 59.7563 10.0114 60.4949 9.54267C61.2383 9.07392 62.1024 8.83955 63.0872 8.83955C64.0721 8.83955 64.9338 9.07392 65.6725 9.54267C66.4158 10.0114 66.9935 10.6696 67.4054 11.5171C67.8221 12.3646 68.0304 13.3566 68.0304 14.493C68.0304 15.6199 67.8221 16.6047 67.4054 17.4475C66.9935 18.2903 66.4158 18.9461 65.6725 19.4148C64.9338 19.8836 64.0721 20.118 63.0872 20.118ZM63.0872 18.6123C63.8354 18.6123 64.4509 18.4205 64.9338 18.037C65.4168 17.6535 65.7743 17.1492 66.0063 16.5242C66.2383 15.8992 66.3543 15.2221 66.3543 14.493C66.3543 13.7638 66.2383 13.0843 66.0063 12.4546C65.7743 11.8249 65.4168 11.3159 64.9338 10.9276C64.4509 10.5394 63.8354 10.3452 63.0872 10.3452C62.3391 10.3452 61.7236 10.5394 61.2407 10.9276C60.7577 11.3159 60.4002 11.8249 60.1682 12.4546C59.9362 13.0843 59.8202 13.7638 59.8202 14.493C59.8202 15.2221 59.9362 15.8992 60.1682 16.5242C60.4002 17.1492 60.7577 17.6535 61.2407 18.037C61.7236 18.4205 62.3391 18.6123 63.0872 18.6123ZM74.9924 24.2089C74.1828 24.2089 73.4867 24.1047 72.9044 23.8964C72.322 23.6928 71.8367 23.4229 71.4484 23.0867C71.0649 22.7553 70.7595 22.4002 70.5322 22.0214L71.8674 21.0839C72.0189 21.2827 72.2107 21.51 72.4427 21.7657C72.6747 22.0261 72.992 22.251 73.3944 22.4404C73.8016 22.6345 74.3343 22.7316 74.9924 22.7316C75.8731 22.7316 76.5999 22.5185 77.1728 22.0924C77.7457 21.6663 78.0322 20.9986 78.0322 20.0895V17.8736H77.8902C77.7671 18.0725 77.5919 18.3187 77.3646 18.6123C77.1421 18.9011 76.8201 19.1592 76.3987 19.3864C75.982 19.609 75.4186 19.7202 74.7083 19.7202C73.8277 19.7202 73.0369 19.5119 72.3362 19.0952C71.6402 18.6786 71.0885 18.0725 70.6814 17.277C70.2789 16.4816 70.0777 15.5157 70.0777 14.3793C70.0777 13.2619 70.2742 12.2889 70.6671 11.4603C71.0601 10.627 71.607 9.98302 72.3078 9.52847C73.0085 9.06919 73.8182 8.83955 74.7367 8.83955C75.447 8.83955 76.0104 8.95792 76.4271 9.19466C76.8485 9.42667 77.1705 9.69182 77.393 9.99012C77.6203 10.2837 77.7955 10.5252 77.9186 10.7145H78.089V8.98159H79.7083V20.2032C79.7083 21.1407 79.4953 21.903 79.0691 22.4901C78.6477 23.082 78.0796 23.5152 77.3646 23.7898C76.6544 24.0692 75.8636 24.2089 74.9924 24.2089ZM74.9356 18.2145C75.608 18.2145 76.1761 18.0607 76.6402 17.7529C77.1042 17.4451 77.4569 17.0024 77.6984 16.4248C77.9399 15.8471 78.0606 15.1558 78.0606 14.3509C78.0606 13.5649 77.9422 12.8713 77.7055 12.2699C77.4688 11.6686 77.1184 11.1975 76.6544 10.8566C76.1903 10.5157 75.6174 10.3452 74.9356 10.3452C74.2254 10.3452 73.6335 10.5252 73.16 10.885C72.6913 11.2449 72.3385 11.7278 72.1018 12.3339C71.8698 12.9399 71.7538 13.6123 71.7538 14.3509C71.7538 15.1085 71.8722 15.7785 72.1089 16.3609C72.3504 16.9385 72.7055 17.3931 73.1743 17.7245C73.6477 18.0512 74.2349 18.2145 74.9356 18.2145Z" fill="#959595"/>
<path fill-rule="evenodd" clip-rule="evenodd" d="M94.2683 18.3013L94.2646 18.3062L94.261 18.3112C94.06 18.5894 93.61 18.6712 93.2581 18.4282C92.9764 18.2336 92.8918 17.8001 93.1317 17.4574C93.4897 17.0112 93.7497 16.4895 93.9205 15.9795C94.0983 15.4486 94.1811 14.8454 94.1779 14.2537C94.1748 13.6621 94.0856 13.0597 93.9021 12.5308C93.7259 12.0226 93.4604 11.5038 93.0976 11.0614C92.8541 10.7213 92.9341 10.2868 93.2137 10.0893C93.563 9.84253 94.0139 9.91953 94.2178 10.1956L94.2214 10.2005L94.2252 10.2054C94.6767 10.7876 95.0469 11.4345 95.2682 12.0691C95.501 12.8157 95.6493 13.538 95.6531 14.2459C95.6571 14.9908 95.5842 15.696 95.3046 16.3901C95 17.1461 94.7051 17.7254 94.2683 18.3013ZM97.5329 19.6837L97.5417 19.6714L97.5498 19.6588C98.5507 18.0906 99.1282 16.1985 99.1177 14.2274C99.1072 12.2568 98.5099 10.3714 97.4928 8.81427C97.2724 8.4724 97.3715 8.06816 97.7431 7.80561C97.9927 7.62929 98.4612 7.69165 98.7392 8.05594C99.8875 9.8379 100.581 11.9921 100.593 14.2196C100.605 16.5231 99.9352 18.6075 98.8048 20.4028C98.5433 20.7547 98.1431 20.8533 97.7979 20.6539C97.4238 20.3859 97.3554 19.9293 97.5329 19.6837ZM103.393 5.713L103.403 5.73204L103.414 5.75023C104.97 8.23143 105.835 11.0935 105.851 14.1916C105.868 17.2882 105.035 20.1581 103.506 22.6549C103.272 23.0233 102.877 23.1272 102.476 22.9447C102.111 22.7122 102.013 22.3269 102.204 21.9376C103.503 19.6807 104.312 17.0213 104.297 14.1998C104.282 11.391 103.531 8.73599 102.118 6.47926C101.927 6.09393 102.022 5.71012 102.383 5.47486C102.818 5.27159 103.241 5.42049 103.393 5.713ZM108.002 3.35098L108.008 3.36398L108.016 3.3766C109.901 6.56449 111.009 10.2093 111.03 14.164C111.051 18.1146 109.985 21.7676 108.137 24.973C107.902 25.3371 107.508 25.4391 107.109 25.2575C106.746 25.0258 106.647 24.6421 106.835 24.2541C108.616 21.283 109.575 17.8411 109.555 14.1718C109.535 10.4931 108.456 7.06475 106.73 4.12344C106.514 3.69407 106.666 3.2735 106.968 3.12392C107.411 2.90437 107.847 3.05332 108.002 3.35098Z" fill="white"/>
</svg>
