<svg width="112" height="26" viewBox="0 0 112 26" fill="none" xmlns="http://www.w3.org/2000/svg">
<path d="M8.23995 5.34523H10.0013V15.743C10.0013 16.671 9.83086 17.4593 9.48995 18.108C9.14904 18.7567 8.66845 19.2491 8.04818 19.5853C7.42792 19.9215 6.69639 20.0895 5.85358 20.0895C5.05813 20.0895 4.35027 19.9451 3.73 19.6563C3.10974 19.3628 2.62205 18.9461 2.26693 18.4063C1.91182 17.8665 1.73426 17.225 1.73426 16.4816H3.46722C3.46722 16.8935 3.56902 17.2534 3.77262 17.5611C3.98095 17.8642 4.26504 18.1009 4.62489 18.2714C4.98474 18.4418 5.3943 18.527 5.85358 18.527C6.36021 18.527 6.79108 18.4205 7.1462 18.2074C7.50131 17.9944 7.7712 17.6819 7.95586 17.2699C8.14525 16.8533 8.23995 16.3443 8.23995 15.743V5.34523ZM13.5311 19.8907V5.34523H18.4459C19.5823 5.34523 20.515 5.53936 21.2442 5.92762C21.9734 6.31114 22.5131 6.83908 22.8635 7.51142C23.2139 8.18377 23.3891 8.94845 23.3891 9.80546C23.3891 10.6625 23.2139 11.4224 22.8635 12.0853C22.5131 12.7482 21.9757 13.269 21.2513 13.6478C20.5269 14.0218 19.6012 14.2089 18.4743 14.2089H14.497V12.618H18.4175C19.194 12.618 19.819 12.5043 20.2925 12.277C20.7707 12.0498 21.1164 11.7278 21.3294 11.3111C21.5472 10.8897 21.6561 10.3878 21.6561 9.80546C21.6561 9.22307 21.5472 8.71408 21.3294 8.27847C21.1116 7.84286 20.7636 7.50669 20.2854 7.26995C19.8072 7.02847 19.1751 6.90773 18.3891 6.90773H15.2925V19.8907H13.5311ZM20.3777 13.3566L23.9573 19.8907H21.9118L18.3891 13.3566H20.3777ZM34.2787 8.98159C34.1934 8.2619 33.8478 7.70319 33.2417 7.30546C32.6357 6.90773 31.8923 6.70887 31.0116 6.70887C30.3677 6.70887 29.8042 6.81303 29.3213 7.02137C28.843 7.2297 28.469 7.51616 28.1991 7.88074C27.934 8.24533 27.8014 8.65962 27.8014 9.12364C27.8014 9.5119 27.8937 9.8457 28.0784 10.1251C28.2678 10.3997 28.5092 10.6293 28.8028 10.814C29.0964 10.9939 29.4041 11.1431 29.7261 11.2614C30.0481 11.3751 30.344 11.4674 30.6139 11.5384L32.0912 11.9361C32.4699 12.0356 32.8913 12.1729 33.3554 12.3481C33.8241 12.5233 34.2716 12.7624 34.6977 13.0654C35.1286 13.3637 35.4837 13.7472 35.763 14.216C36.0424 14.6847 36.1821 15.26 36.1821 15.9418C36.1821 16.7278 35.9761 17.438 35.5642 18.0725C35.157 18.707 34.5604 19.2112 33.7744 19.5853C32.9931 19.9593 32.0438 20.1464 30.9264 20.1464C29.8847 20.1464 28.9827 19.9783 28.2204 19.6421C27.4628 19.3059 26.8662 18.8372 26.4306 18.2359C25.9998 17.6345 25.7559 16.9361 25.6991 16.1407H27.5173C27.5646 16.6899 27.7493 17.1445 28.0713 17.5043C28.398 17.8594 28.8099 18.1246 29.3071 18.2998C29.809 18.4702 30.3487 18.5555 30.9264 18.5555C31.5987 18.5555 32.2024 18.4466 32.7375 18.2288C33.2725 18.0062 33.6963 17.6985 34.0088 17.3055C34.3213 16.9077 34.4775 16.4437 34.4775 15.9134C34.4775 15.4305 34.3426 15.0375 34.0727 14.7344C33.8028 14.4314 33.4477 14.1852 33.0073 13.9958C32.567 13.8064 32.0912 13.6407 31.5798 13.4986L29.79 12.9873C28.6537 12.6606 27.754 12.1942 27.0912 11.5881C26.4283 10.9821 26.0968 10.189 26.0968 9.20887C26.0968 8.39447 26.317 7.68425 26.7573 7.07819C27.2024 6.46739 27.799 5.99391 28.5471 5.65773C29.3 5.31682 30.1404 5.14637 31.0684 5.14637C32.0059 5.14637 32.8393 5.31445 33.5684 5.65063C34.2976 5.98207 34.8752 6.43661 35.3014 7.01426C35.7323 7.59192 35.9595 8.24769 35.9832 8.98159H34.2787Z" fill="#959595"/>
<path d="M38.7513 19.8907V5.34523H44.2059C45.3233 5.34523 46.2608 5.55356 47.0184 5.97023C47.7807 6.3869 48.356 6.95981 48.7442 7.68898C49.1372 8.41341 49.3337 9.23728 49.3337 10.1606C49.3337 11.0933 49.1372 11.9219 48.7442 12.6464C48.3512 13.3708 47.7712 13.9413 47.0042 14.358C46.2371 14.7699 45.2925 14.9759 44.1703 14.9759H40.5553V12.8097H43.8152C44.4686 12.8097 45.0037 12.6961 45.4203 12.4688C45.837 12.2415 46.1448 11.929 46.3436 11.5313C46.5472 11.1336 46.649 10.6767 46.649 10.1606C46.649 9.64447 46.5472 9.18993 46.3436 8.79694C46.1448 8.40394 45.8346 8.09855 45.4132 7.88074C44.9966 7.6582 44.4592 7.54694 43.801 7.54694H41.3863V19.8907H38.7513ZM51.5088 19.8907V8.98159H54.0017V10.7998H54.1153C54.3142 10.17 54.6551 9.68472 55.138 9.34381C55.6257 8.99817 56.1821 8.82534 56.8071 8.82534C56.9491 8.82534 57.1077 8.83245 57.2829 8.84665C57.4628 8.85612 57.612 8.87269 57.7304 8.89637V11.2614C57.6215 11.2235 57.4486 11.1904 57.2119 11.162C56.9799 11.1288 56.755 11.1123 56.5372 11.1123C56.0684 11.1123 55.647 11.2141 55.273 11.4177C54.9037 11.6165 54.6125 11.8935 54.3994 12.2486C54.1863 12.6038 54.0798 13.0133 54.0798 13.4773V19.8907H51.5088ZM63.7478 20.1038C62.6824 20.1038 61.7591 19.8694 60.9779 19.4006C60.1966 18.9319 59.5906 18.2761 59.1597 17.4333C58.7336 16.5905 58.5205 15.6056 58.5205 14.4788C58.5205 13.3519 58.7336 12.3646 59.1597 11.5171C59.5906 10.6696 60.1966 10.0114 60.9779 9.54267C61.7591 9.07392 62.6824 8.83955 63.7478 8.83955C64.8131 8.83955 65.7364 9.07392 66.5176 9.54267C67.2989 10.0114 67.9026 10.6696 68.3287 11.5171C68.7596 12.3646 68.975 13.3519 68.975 14.4788C68.975 15.6056 68.7596 16.5905 68.3287 17.4333C67.9026 18.2761 67.2989 18.9319 66.5176 19.4006C65.7364 19.8694 64.8131 20.1038 63.7478 20.1038ZM63.762 18.0441C64.3396 18.0441 64.8226 17.8855 65.2108 17.5682C65.5991 17.2463 65.8879 16.8154 66.0773 16.2756C66.2714 15.7359 66.3685 15.1345 66.3685 14.4717C66.3685 13.804 66.2714 13.2003 66.0773 12.6606C65.8879 12.1161 65.5991 11.6828 65.2108 11.3609C64.8226 11.0389 64.3396 10.8779 63.762 10.8779C63.1701 10.8779 62.6777 11.0389 62.2847 11.3609C61.8964 11.6828 61.6052 12.1161 61.4111 12.6606C61.2217 13.2003 61.127 13.804 61.127 14.4717C61.127 15.1345 61.2217 15.7359 61.4111 16.2756C61.6052 16.8154 61.8964 17.2463 62.2847 17.5682C62.6777 17.8855 63.1701 18.0441 63.762 18.0441ZM75.9015 24.2089C74.9782 24.2089 74.1851 24.0834 73.5223 23.8324C72.8594 23.5862 72.3267 23.2548 71.9242 22.8381C71.5218 22.4215 71.2424 21.9598 71.0862 21.4532L73.4015 20.8921C73.5057 21.1052 73.6572 21.3159 73.8561 21.5242C74.0549 21.7373 74.3225 21.9125 74.6586 22.0498C74.9995 22.1918 75.428 22.2628 75.9441 22.2628C76.6733 22.2628 77.277 22.0853 77.7552 21.7302C78.2334 21.3798 78.4725 20.8021 78.4725 19.9972V17.9305H78.3447C78.2121 18.1956 78.018 18.4679 77.7623 18.7472C77.5114 19.0266 77.1776 19.261 76.7609 19.4503C76.349 19.6397 75.8305 19.7344 75.2055 19.7344C74.3674 19.7344 73.6075 19.5379 72.9257 19.1449C72.2486 18.7472 71.7088 18.1554 71.3064 17.3694C70.9086 16.5787 70.7098 15.5891 70.7098 14.4006C70.7098 13.2027 70.9086 12.1918 71.3064 11.368C71.7088 10.5394 72.251 9.91199 72.9328 9.48586C73.6146 9.05499 74.3745 8.83955 75.2126 8.83955C75.8518 8.83955 76.3774 8.94845 76.7893 9.16625C77.206 9.37932 77.5374 9.63737 77.7836 9.9404C78.0298 10.2387 78.2169 10.5204 78.3447 10.7856H78.4868V8.98159H81.0223V20.0682C81.0223 21.001 80.7997 21.7728 80.3546 22.3836C79.9096 22.9944 79.3011 23.4513 78.5294 23.7543C77.7576 24.0574 76.8816 24.2089 75.9015 24.2089ZM75.9228 17.7174C76.4673 17.7174 76.9314 17.5848 77.3149 17.3197C77.6984 17.0545 77.9896 16.6734 78.1885 16.1762C78.3873 15.679 78.4868 15.0824 78.4868 14.3864C78.4868 13.6999 78.3873 13.0985 78.1885 12.5824C77.9943 12.0663 77.7055 11.6663 77.322 11.3822C76.9432 11.0933 76.4768 10.9489 75.9228 10.9489C75.3499 10.9489 74.8717 11.0981 74.4882 11.3964C74.1046 11.6947 73.8158 12.1042 73.6217 12.6251C73.4276 13.1412 73.3305 13.7283 73.3305 14.3864C73.3305 15.054 73.4276 15.6388 73.6217 16.1407C73.8206 16.6378 74.1117 17.0261 74.4953 17.3055C74.8835 17.5801 75.3594 17.7174 75.9228 17.7174Z" fill="white"/>
<path fill-rule="evenodd" clip-rule="evenodd" d="M94.2683 18.3013L94.2646 18.3062L94.261 18.3112C94.06 18.5894 93.61 18.6712 93.2581 18.4282C92.9764 18.2336 92.8918 17.8001 93.1317 17.4574C93.4897 17.0112 93.7497 16.4895 93.9205 15.9795C94.0983 15.4486 94.1811 14.8454 94.1779 14.2537C94.1748 13.6621 94.0856 13.0597 93.9021 12.5308C93.7259 12.0226 93.4604 11.5038 93.0976 11.0614C92.8541 10.7213 92.9341 10.2868 93.2137 10.0893C93.563 9.84253 94.0139 9.91953 94.2178 10.1956L94.2214 10.2005L94.2252 10.2054C94.6767 10.7876 95.0469 11.4345 95.2682 12.0691C95.501 12.8157 95.6493 13.538 95.6531 14.2459C95.6571 14.9908 95.5842 15.696 95.3046 16.3901C95 17.1461 94.7051 17.7254 94.2683 18.3013ZM97.5329 19.6837L97.5417 19.6714L97.5498 19.6588C98.5507 18.0906 99.1282 16.1985 99.1177 14.2274C99.1072 12.2568 98.5099 10.3714 97.4928 8.81427C97.2724 8.4724 97.3715 8.06816 97.7431 7.80561C97.9927 7.62929 98.4612 7.69165 98.7392 8.05594C99.8875 9.8379 100.581 11.9921 100.593 14.2196C100.605 16.5231 99.9352 18.6075 98.8048 20.4028C98.5433 20.7547 98.1431 20.8533 97.7979 20.6539C97.4238 20.3859 97.3554 19.9293 97.5329 19.6837ZM103.393 5.713L103.403 5.73204L103.414 5.75023C104.97 8.23143 105.835 11.0935 105.851 14.1916C105.868 17.2882 105.035 20.1581 103.506 22.6549C103.272 23.0233 102.877 23.1272 102.476 22.9447C102.111 22.7122 102.013 22.3269 102.204 21.9376C103.503 19.6807 104.312 17.0213 104.297 14.1998C104.282 11.391 103.531 8.73599 102.118 6.47926C101.927 6.09393 102.022 5.71012 102.383 5.47486C102.818 5.27159 103.241 5.42049 103.393 5.713ZM108.002 3.35098L108.008 3.36398L108.016 3.3766C109.901 6.56449 111.009 10.2093 111.03 14.164C111.051 18.1146 109.985 21.7676 108.137 24.973C107.902 25.3371 107.508 25.4391 107.109 25.2575C106.746 25.0258 106.647 24.6421 106.835 24.2541C108.616 21.283 109.575 17.8411 109.555 14.1718C109.535 10.4931 108.456 7.06475 106.73 4.12344C106.514 3.69407 106.666 3.2735 106.968 3.12392C107.411 2.90437 107.847 3.05332 108.002 3.35098Z" fill="white"/>
</svg>
